<?xml version="1.0" standalone="no"?>
<!DOCTYPE svg PUBLIC "-//W3C//DTD SVG 20010904//EN"
 "http://www.w3.org/TR/2001/REC-SVG-20010904/DTD/svg10.dtd">
<svg version="1.0" xmlns="http://www.w3.org/2000/svg"
 width="1082.000000pt" height="960.000000pt" viewBox="0 0 1082.000000 960.000000"
 preserveAspectRatio="xMidYMid meet">

<g transform="translate(0.000000,960.000000) scale(0.100000,-0.100000)"
fill="#000000" stroke="none">
<path d="M2575 8080 c-7 -12 -6 -16 270 -895 414 -1323 468 -1494 720 -2300
141 -451 330 -1054 420 -1340 89 -286 267 -855 395 -1265 128 -410 238 -751
243 -757 7 -10 175 -13 777 -13 423 0 775 3 784 6 10 4 34 64 65 163 67 212
606 1933 641 2046 31 102 687 2196 1081 3453 72 229 165 524 206 656 41 131
71 242 66 246 -4 4 -362 -49 -795 -118 -614 -99 -789 -130 -794 -142 -6 -14
-245 -713 -499 -1455 -68 -198 -206 -603 -308 -900 -102 -297 -217 -634 -257
-750 -154 -449 -173 -505 -177 -501 -5 5 -60 163 -278 796 -30 85 -97 281
-150 435 -53 154 -143 415 -200 580 -57 165 -145 419 -195 565 -51 146 -136
393 -190 550 -165 480 -239 693 -242 695 -2 1 -37 7 -78 13 -134 20 -1454 232
-1477 237 -12 3 -25 1 -28 -5z"/>
</g>
</svg>
